<svg width="381" height="381" viewBox="0 0 381 381" fill="none" xmlns="http://www.w3.org/2000/svg">
<rect width="381" height="381" rx="86" fill="#1B1B1F"/>
<path fill-rule="evenodd" clip-rule="evenodd" d="M143.644 96.2923C156.491 96.2923 166.906 106.707 166.906 119.554V143.481H142.979C130.132 143.481 119.717 133.066 119.717 120.219V96.2923H143.644ZM190.167 143.481C177.32 143.481 166.906 153.896 166.906 166.743V190.67H190.833C203.68 190.67 214.094 180.255 214.094 167.408V143.481L238.021 143.481C250.868 143.481 261.283 133.066 261.283 120.219V96.2923H237.356C224.509 96.2923 214.094 106.707 214.094 119.554L214.094 143.481H190.167ZM190.833 237.858C203.68 237.858 214.094 248.273 214.094 261.12V285.047H190.167C177.32 285.047 166.906 274.632 166.906 261.785V237.858H190.833ZM119.717 190.67H95.7902C82.943 190.67 72.5282 180.255 72.5282 167.408V143.481H96.4549C109.302 143.481 119.717 153.896 119.717 166.743V190.67ZM119.717 190.67V214.596C119.717 227.444 130.132 237.858 142.979 237.858L166.906 237.858V213.932C166.906 201.085 156.491 190.67 143.644 190.67H119.717ZM237.356 190.67C224.509 190.67 214.094 201.085 214.094 213.932V237.858H238.021C250.868 237.858 261.283 227.444 261.283 214.596V190.67H285.21C298.057 190.67 308.472 180.255 308.472 167.408V143.481H284.545C271.698 143.481 261.283 153.896 261.283 166.743L261.283 190.67H237.356Z" fill="#99BBFF"/>
</svg>
